<svg width="20" height="20" viewBox="0 0 20 20" fill="none"
    xmlns="http://www.w3.org/2000/svg">
    <g clip-path="url(#clip0)">
        <path d="M19.4509 10.7008C20.1831 9.9686 20.1831 8.78141 19.4509 8.04918L13.2009 1.79918C12.4686 1.06696 11.2815 1.06692 10.5492 1.79918L0.54917 11.7992C-0.183057 12.5314 -0.183057 13.7186 0.54917 14.4508L4.29917 18.2008C4.65082 18.5524 5.12774 18.75 5.62503 18.75H19.5313C19.7901 18.75 20 18.5401 20 18.2813V16.7188C20 16.4599 19.7901 16.25 19.5313 16.25H13.9017L19.4509 10.7008ZM7.62948 8.25446L12.9956 13.6206L10.3662 16.25H5.88394L2.75894 13.125L7.62948 8.25446Z" fill="#333333"/>
    </g>
    <defs>
        <clipPath id="clip0">
            <rect width="20" height="20" fill="white"/>
        </clipPath>
    </defs>
</svg>
