<svg width="20" height="20" viewBox="0 0 20 20" fill="none"
    xmlns="http://www.w3.org/2000/svg">
    <g clip-path="url(#clip0)">
        <path d="M10.0047 9.60781C9.48717 9.60781 9.06725 10.0273 9.06725 10.5453C9.11178 13.3676 8.74928 16.0883 7.98522 18.809C7.87858 19.1887 8.0692 20 8.88834 20C9.29772 20 9.67389 19.7297 9.7903 19.3156C10.3188 17.4441 11.0028 14.4168 10.9419 10.5453C10.9422 10.0277 10.5227 9.60781 10.0047 9.60781ZM9.97115 6.41523C7.57819 6.4125 5.90826 8.25391 5.94147 10.3641C5.97076 12.2367 5.79498 14.1105 5.4192 15.9324C5.31412 16.4395 5.64069 16.9359 6.14733 17.0402C6.65709 17.1445 7.15006 16.8191 7.25514 16.3121C7.65905 14.3555 7.84772 12.3441 7.81647 10.3348C7.80045 9.32109 8.59459 8.28437 9.94342 8.29023C11.1665 8.30859 12.1758 9.28008 12.1942 10.457C12.2243 12.334 12.0844 14.2199 11.7797 16.0645C11.695 16.5746 12.0411 17.0574 12.5516 17.1418C13.3317 17.2719 13.5989 16.552 13.629 16.3695C13.9524 14.4152 14.1001 12.416 14.0692 10.4277C14.0348 8.24805 12.1965 6.44805 9.97115 6.41523ZM5.64733 5.64258C5.24498 5.3168 4.65631 5.37695 4.32858 5.77851C3.32779 7.00898 2.7899 8.56289 2.8149 10.1535C2.83795 11.6215 2.71842 13.0938 2.45904 14.5305C2.36764 15.0402 2.70553 15.5277 3.21529 15.6199C4.00084 15.7566 4.27272 15.0414 4.30475 14.8637C4.58561 13.3074 4.7149 11.7129 4.6899 10.1242C4.67155 8.95703 5.04928 7.86328 5.78365 6.96133C6.10983 6.55976 6.04889 5.96953 5.64733 5.64258ZM9.9235 3.20781C9.32154 3.19179 8.71764 3.26406 8.13522 3.40195C7.6317 3.52148 7.31998 4.02617 7.43873 4.53047C7.55826 5.03398 8.06373 5.34414 8.56725 5.22695C8.99889 5.125 9.44498 5.07969 9.89537 5.08281C12.8419 5.12695 15.2755 7.48516 15.3204 10.3398C15.3434 11.8195 15.2704 13.3129 15.1024 14.7785C15.0438 15.293 15.413 15.7582 15.927 15.8168C16.5801 15.893 16.9235 15.3527 16.9653 14.9922C17.1428 13.4382 17.2196 11.8744 17.1954 10.3105C17.1344 6.45312 13.8723 3.2664 9.9235 3.20781ZM19.77 7.95195C19.6583 7.44727 19.1641 7.12383 18.6524 7.23828C18.1469 7.35 17.8274 7.85 17.9391 8.35586C18.1231 9.19219 18.1309 9.81719 18.1227 10.7621C18.1184 11.2805 18.5348 11.7031 19.0524 11.7074H19.0602C19.5747 11.7074 19.9934 11.293 19.9977 10.7777C20.0047 9.91133 20.0133 9.05469 19.77 7.95195ZM18.2028 4.4082C16.3005 1.69765 13.1876 0.0503881 9.87545 0.000778676C7.14928 -0.0320338 4.62779 0.973045 2.7524 2.84922C0.941076 4.66289 -0.0350962 7.07187 0.00552881 9.63476L0.00084131 10.4734C-0.0143931 10.991 0.392638 11.423 0.910216 11.4379C0.919201 11.4387 0.928966 11.4387 0.938341 11.4387C1.44303 11.4387 1.85983 11.0363 1.87467 10.5285L1.88092 9.60508C1.8485 7.5543 2.62936 5.62617 4.07936 4.17539C5.59342 2.65976 7.64733 1.84453 9.84811 1.87617C12.561 1.9164 15.111 3.26523 16.6692 5.48515C16.9665 5.90937 17.5505 6.01055 17.9747 5.71406C18.3981 5.4164 18.5005 4.83164 18.2028 4.4082Z" fill="#333333"/>
    </g>
    <defs>
        <clipPath id="clip0">
            <rect width="20" height="20" fill="white"/>
        </clipPath>
    </defs>
</svg>
