<svg width="32" height="32" viewBox="0 0 32 32" fill="none"
    xmlns="http://www.w3.org/2000/svg">
    <path d="M16 0.5C7.16129 0.5 0 7.4375 0 16C0 24.5625 7.16129 31.5 16 31.5C24.8387 31.5 32 24.5625 32 16C32 7.4375 24.8387 0.5 16 0.5ZM28.9032 16C28.9032 17.4062 28.6516 18.7625 28.2065 20.025H26.8968C26.6194 20.025 26.3548 19.9188 26.1613 19.725L24.0968 17.6875C23.8065 17.4 23.8065 16.9312 24.1032 16.6437L24.9097 15.8625V15.3188C24.9097 15.1313 24.8323 14.95 24.6968 14.8188L24.0903 14.2312C23.9548 14.1 23.7677 14.025 23.5742 14.025H22.5419C22.1419 14.025 21.8129 13.7063 21.8129 13.3188C21.8129 13.1313 21.8903 12.95 22.0258 12.8188L22.6323 12.2312C22.7677 12.1 22.9548 12.025 23.1484 12.025H25.2129C25.6129 12.025 25.9419 11.7063 25.9419 11.3188V10.7312C25.9419 10.3438 25.6129 10.025 25.2129 10.025H22.8452C22.2774 10.025 21.8129 10.475 21.8129 11.025V11.3062C21.8129 11.7375 21.529 12.1188 21.1097 12.2563L19.071 12.9125C18.8581 12.9813 18.7161 13.1687 18.7161 13.3875V13.525C18.7161 13.8 18.4839 14.025 18.2 14.025H17.1677C16.8839 14.025 16.6516 13.8 16.6516 13.525C16.6516 13.25 16.4194 13.025 16.1355 13.025H15.9355C15.7419 13.025 15.5613 13.1313 15.471 13.3L14.8645 14.4688C14.6903 14.8062 14.3355 15.0188 13.9419 15.0188H12.5161C11.9484 15.0188 11.4839 14.5688 11.4839 14.0188V12.4375C11.4839 12.175 11.5935 11.9187 11.7871 11.7312L13.0839 10.475C13.3806 10.1875 13.5484 9.79375 13.5484 9.38125C13.5484 9.16875 13.6903 8.975 13.9032 8.90625L16.4839 8.075C16.5935 8.0375 16.6903 7.98125 16.7677 7.90625L18.4968 6.23125C18.6323 6.1 18.7097 5.91875 18.7097 5.73125C18.7097 5.34375 18.3806 5.025 17.9806 5.025H16.6452L15.6129 6.025V6.525C15.6129 6.8 15.3806 7.025 15.0968 7.025H14.0645C13.7806 7.025 13.5484 6.8 13.5484 6.525V5.275C13.5484 5.11875 13.6258 4.96875 13.7548 4.875L15.6194 3.51875C15.7419 3.5125 15.8645 3.5 15.9871 3.5C23.1161 3.5 28.9032 9.10625 28.9032 16ZM8.39355 9.31875C8.39355 9.13125 8.47097 8.95 8.60645 8.81875L10.2452 7.23125C10.3806 7.1 10.5677 7.025 10.7613 7.025C11.1613 7.025 11.4903 7.34375 11.4903 7.73125V8.73125C11.4903 8.91875 11.4129 9.1 11.2774 9.23125L10.671 9.81875C10.5355 9.95 10.3484 10.025 10.1548 10.025H9.12258C8.72258 10.025 8.39355 9.70625 8.39355 9.31875ZM16.6516 28.4688V28.025C16.6516 27.475 16.1871 27.025 15.6194 27.025H14.3161C13.6194 27.025 12.5935 26.6938 12.0323 26.2875L10.6 25.2437C9.85806 24.7062 9.42581 23.8625 9.42581 22.9688V21.475C9.42581 20.475 9.96774 19.55 10.8516 19.0375L13.6194 17.4312C14.0774 17.1687 14.6 17.025 15.129 17.025H17.1419C17.8452 17.025 18.5226 17.2687 19.0516 17.7062L21.8387 20.025H23.0194C23.5677 20.025 24.0903 20.2375 24.4774 20.6125L25.5935 21.6938C25.8129 21.9062 26.1161 22.025 26.4258 22.025H27.2903C25.2 25.7062 21.2387 28.2437 16.6516 28.4688Z" fill="#333333"/>
</svg>
