<svg xmlns="http://www.w3.org/2000/svg" xmlns:xlink="http://www.w3.org/1999/xlink" width="1028.896" height="745.284" viewBox="0 0 1028.896 745.284">
  <defs>
    <filter id="Path_1" x="0" y="406.633" width="1028.896" height="338.651" filterUnits="userSpaceOnUse">
      <feOffset dx="5" dy="-5" input="SourceAlpha"/>
      <feGaussianBlur stdDeviation="3" result="blur"/>
      <feFlood flood-opacity="0.161"/>
      <feComposite operator="in" in2="blur"/>
      <feComposite in="SourceGraphic"/>
    </filter>
    <filter id="Path_2" x="216.117" y="0" width="339.41" height="724.44" filterUnits="userSpaceOnUse">
      <feOffset dx="5" dy="-5" input="SourceAlpha"/>
      <feGaussianBlur stdDeviation="3" result="blur-2"/>
      <feFlood flood-opacity="0.161"/>
      <feComposite operator="in" in2="blur-2"/>
      <feComposite in="SourceGraphic"/>
    </filter>
    <filter id="Ellipse_1" x="282.426" y="101" width="32" height="32" filterUnits="userSpaceOnUse">
      <feOffset dx="5" dy="-5" input="SourceAlpha"/>
      <feGaussianBlur stdDeviation="3" result="blur-3"/>
      <feFlood flood-opacity="0.161"/>
      <feComposite operator="in" in2="blur-3"/>
      <feComposite in="SourceGraphic"/>
    </filter>
    <filter id="Path_3" x="456.667" y="22.38" width="98.86" height="80.17" filterUnits="userSpaceOnUse">
      <feOffset dx="5" dy="-5" input="SourceAlpha"/>
      <feGaussianBlur stdDeviation="3" result="blur-4"/>
      <feFlood flood-opacity="0.161"/>
      <feComposite operator="in" in2="blur-4"/>
      <feComposite in="SourceGraphic"/>
    </filter>
    <filter id="Path_4" x="395.937" y="29.04" width="159.59" height="131.05" filterUnits="userSpaceOnUse">
      <feOffset dx="5" dy="-5" input="SourceAlpha"/>
      <feGaussianBlur stdDeviation="3" result="blur-5"/>
      <feFlood flood-opacity="0.161"/>
      <feComposite operator="in" in2="blur-5"/>
      <feComposite in="SourceGraphic"/>
    </filter>
    <filter id="Path_5" x="335.637" y="29.04" width="219.89" height="189.12" filterUnits="userSpaceOnUse">
      <feOffset dx="5" dy="-5" input="SourceAlpha"/>
      <feGaussianBlur stdDeviation="3" result="blur-6"/>
      <feFlood flood-opacity="0.161"/>
      <feComposite operator="in" in2="blur-6"/>
      <feComposite in="SourceGraphic"/>
    </filter>
    <filter id="Path_6" x="262.426" y="158" width="22" height="22" filterUnits="userSpaceOnUse">
      <feOffset dx="5" dy="-5" input="SourceAlpha"/>
      <feGaussianBlur stdDeviation="3" result="blur-7"/>
      <feFlood flood-opacity="0.161"/>
      <feComposite operator="in" in2="blur-7"/>
      <feComposite in="SourceGraphic"/>
    </filter>
    <filter id="Path_7" x="385.426" y="67" width="22" height="22" filterUnits="userSpaceOnUse">
      <feOffset dx="5" dy="-5" input="SourceAlpha"/>
      <feGaussianBlur stdDeviation="3" result="blur-8"/>
      <feFlood flood-opacity="0.161"/>
      <feComposite operator="in" in2="blur-8"/>
      <feComposite in="SourceGraphic"/>
    </filter>
    <filter id="Path_8" x="280.426" y="230" width="22" height="22" filterUnits="userSpaceOnUse">
      <feOffset dx="5" dy="-5" input="SourceAlpha"/>
      <feGaussianBlur stdDeviation="3" result="blur-9"/>
      <feFlood flood-opacity="0.161"/>
      <feComposite operator="in" in2="blur-9"/>
      <feComposite in="SourceGraphic"/>
    </filter>
    <filter id="Path_9" x="364.426" y="177" width="22" height="22" filterUnits="userSpaceOnUse">
      <feOffset dx="5" dy="-5" input="SourceAlpha"/>
      <feGaussianBlur stdDeviation="3" result="blur-10"/>
      <feFlood flood-opacity="0.161"/>
      <feComposite operator="in" in2="blur-10"/>
      <feComposite in="SourceGraphic"/>
    </filter>
    <filter id="Path_10" x="484.426" y="210" width="22" height="22" filterUnits="userSpaceOnUse">
      <feOffset dx="5" dy="-5" input="SourceAlpha"/>
      <feGaussianBlur stdDeviation="3" result="blur-11"/>
      <feFlood flood-opacity="0.161"/>
      <feComposite operator="in" in2="blur-11"/>
      <feComposite in="SourceGraphic"/>
    </filter>
    <filter id="Ellipse_2" x="463.426" y="121" width="26" height="26" filterUnits="userSpaceOnUse">
      <feOffset dx="5" dy="-5" input="SourceAlpha"/>
      <feGaussianBlur stdDeviation="3" result="blur-12"/>
      <feFlood flood-opacity="0.161"/>
      <feComposite operator="in" in2="blur-12"/>
      <feComposite in="SourceGraphic"/>
    </filter>
    <filter id="Path_11" x="321.857" y="218.8" width="21.97" height="32.12" filterUnits="userSpaceOnUse">
      <feOffset dx="5" dy="-5" input="SourceAlpha"/>
      <feGaussianBlur stdDeviation="3" result="blur-13"/>
      <feFlood flood-opacity="0.161"/>
      <feComposite operator="in" in2="blur-13"/>
      <feComposite in="SourceGraphic"/>
    </filter>
    <filter id="Path_12" x="315.717" y="191.46" width="23.78" height="32.07" filterUnits="userSpaceOnUse">
      <feOffset dx="5" dy="-5" input="SourceAlpha"/>
      <feGaussianBlur stdDeviation="3" result="blur-14"/>
      <feFlood flood-opacity="0.161"/>
      <feComposite operator="in" in2="blur-14"/>
      <feComposite in="SourceGraphic"/>
    </filter>
    <filter id="Path_13" x="305.917" y="165.24" width="25.5" height="31.75" filterUnits="userSpaceOnUse">
      <feOffset dx="5" dy="-5" input="SourceAlpha"/>
      <feGaussianBlur stdDeviation="3" result="blur-15"/>
      <feFlood flood-opacity="0.161"/>
      <feComposite operator="in" in2="blur-15"/>
      <feComposite in="SourceGraphic"/>
    </filter>
    <filter id="Path_14" x="292.667" y="140.66" width="27.06" height="31.16" filterUnits="userSpaceOnUse">
      <feOffset dx="5" dy="-5" input="SourceAlpha"/>
      <feGaussianBlur stdDeviation="3" result="blur-16"/>
      <feFlood flood-opacity="0.161"/>
      <feComposite operator="in" in2="blur-16"/>
      <feComposite in="SourceGraphic"/>
    </filter>
    <filter id="Path_15" x="276.197" y="118.13" width="28.46" height="30.35" filterUnits="userSpaceOnUse">
      <feOffset dx="5" dy="-5" input="SourceAlpha"/>
      <feGaussianBlur stdDeviation="3" result="blur-17"/>
      <feFlood flood-opacity="0.161"/>
      <feComposite operator="in" in2="blur-17"/>
      <feComposite in="SourceGraphic"/>
    </filter>
    <filter id="Path_16" x="256.837" y="98.07" width="29.67" height="29.3" filterUnits="userSpaceOnUse">
      <feOffset dx="5" dy="-5" input="SourceAlpha"/>
      <feGaussianBlur stdDeviation="3" result="blur-18"/>
      <feFlood flood-opacity="0.161"/>
      <feComposite operator="in" in2="blur-18"/>
      <feComposite in="SourceGraphic"/>
    </filter>
    <filter id="Path_17" x="234.957" y="80.85" width="30.65" height="28.04" filterUnits="userSpaceOnUse">
      <feOffset dx="5" dy="-5" input="SourceAlpha"/>
      <feGaussianBlur stdDeviation="3" result="blur-19"/>
      <feFlood flood-opacity="0.161"/>
      <feComposite operator="in" in2="blur-19"/>
      <feComposite in="SourceGraphic"/>
    </filter>
    <filter id="Path_18" x="216.117" y="68.89" width="26.23" height="24.5" filterUnits="userSpaceOnUse">
      <feOffset dx="5" dy="-5" input="SourceAlpha"/>
      <feGaussianBlur stdDeviation="3" result="blur-20"/>
      <feFlood flood-opacity="0.161"/>
      <feComposite operator="in" in2="blur-20"/>
      <feComposite in="SourceGraphic"/>
    </filter>
    <filter id="Path_19" x="323.607" y="428.018" width="21.294" height="25.163" filterUnits="userSpaceOnUse">
      <feOffset dx="5" dy="-5" input="SourceAlpha"/>
      <feGaussianBlur stdDeviation="3" result="blur-21"/>
      <feFlood flood-opacity="0.161"/>
      <feComposite operator="in" in2="blur-21"/>
      <feComposite in="SourceGraphic"/>
    </filter>
    <filter id="Path_20" x="317.198" y="448.405" width="23.905" height="32.061" filterUnits="userSpaceOnUse">
      <feOffset dx="5" dy="-5" input="SourceAlpha"/>
      <feGaussianBlur stdDeviation="3" result="blur-22"/>
      <feFlood flood-opacity="0.161"/>
      <feComposite operator="in" in2="blur-22"/>
      <feComposite in="SourceGraphic"/>
    </filter>
    <filter id="Path_21" x="307.156" y="474.871" width="25.611" height="31.721" filterUnits="userSpaceOnUse">
      <feOffset dx="5" dy="-5" input="SourceAlpha"/>
      <feGaussianBlur stdDeviation="3" result="blur-23"/>
      <feFlood flood-opacity="0.161"/>
      <feComposite operator="in" in2="blur-23"/>
      <feComposite in="SourceGraphic"/>
    </filter>
    <filter id="Path_22" x="293.645" y="499.965" width="27.183" height="31.134" filterUnits="userSpaceOnUse">
      <feOffset dx="5" dy="-5" input="SourceAlpha"/>
      <feGaussianBlur stdDeviation="3" result="blur-24"/>
      <feFlood flood-opacity="0.161"/>
      <feComposite operator="in" in2="blur-24"/>
      <feComposite in="SourceGraphic"/>
    </filter>
    <filter id="Path_23" x="276.928" y="523.209" width="28.579" height="30.287" filterUnits="userSpaceOnUse">
      <feOffset dx="5" dy="-5" input="SourceAlpha"/>
      <feGaussianBlur stdDeviation="3" result="blur-25"/>
      <feFlood flood-opacity="0.161"/>
      <feComposite operator="in" in2="blur-25"/>
      <feComposite in="SourceGraphic"/>
    </filter>
    <filter id="Path_24" x="257.353" y="544.139" width="29.755" height="29.221" filterUnits="userSpaceOnUse">
      <feOffset dx="5" dy="-5" input="SourceAlpha"/>
      <feGaussianBlur stdDeviation="3" result="blur-26"/>
      <feFlood flood-opacity="0.161"/>
      <feComposite operator="in" in2="blur-26"/>
      <feComposite in="SourceGraphic"/>
    </filter>
    <filter id="Path_25" x="235.301" y="562.398" width="30.708" height="27.948" filterUnits="userSpaceOnUse">
      <feOffset dx="5" dy="-5" input="SourceAlpha"/>
      <feGaussianBlur stdDeviation="3" result="blur-27"/>
      <feFlood flood-opacity="0.161"/>
      <feComposite operator="in" in2="blur-27"/>
      <feComposite in="SourceGraphic"/>
    </filter>
    <filter id="Path_26" x="216.117" y="577.66" width="26.49" height="24.52" filterUnits="userSpaceOnUse">
      <feOffset dx="5" dy="-5" input="SourceAlpha"/>
      <feGaussianBlur stdDeviation="3" result="blur-28"/>
      <feFlood flood-opacity="0.161"/>
      <feComposite operator="in" in2="blur-28"/>
      <feComposite in="SourceGraphic"/>
    </filter>
    <filter id="Path_27" x="324.282" y="247.064" width="20.333" height="24.936" filterUnits="userSpaceOnUse">
      <feOffset dx="5" dy="-5" input="SourceAlpha"/>
      <feGaussianBlur stdDeviation="3" result="blur-29"/>
      <feFlood flood-opacity="0.161"/>
      <feComposite operator="in" in2="blur-29"/>
      <feComposite in="SourceGraphic"/>
    </filter>
    <filter id="Path_28" x="226.216" y="301.632" width="319.211" height="92.736" filterUnits="userSpaceOnUse">
      <feOffset dx="5" dy="-5" input="SourceAlpha"/>
      <feGaussianBlur stdDeviation="3" result="blur-30"/>
      <feFlood flood-opacity="0.161"/>
      <feComposite operator="in" in2="blur-30"/>
      <feComposite in="SourceGraphic"/>
    </filter>
    <filter id="Path_29" x="374.192" y="450.498" width="46.23" height="273.023" filterUnits="userSpaceOnUse">
      <feOffset dx="5" dy="-5" input="SourceAlpha"/>
      <feGaussianBlur stdDeviation="3" result="blur-31"/>
      <feFlood flood-opacity="0.161"/>
      <feComposite operator="in" in2="blur-31"/>
      <feComposite in="SourceGraphic"/>
    </filter>
    <filter id="Ellipse_3" x="358.17" y="421" width="44" height="44" filterUnits="userSpaceOnUse">
      <feOffset dx="5" dy="-5" input="SourceAlpha"/>
      <feGaussianBlur stdDeviation="3" result="blur-32"/>
      <feFlood flood-opacity="0.161"/>
      <feComposite operator="in" in2="blur-32"/>
      <feComposite in="SourceGraphic"/>
    </filter>
    <filter id="Ellipse_4" x="399.17" y="469" width="44" height="44" filterUnits="userSpaceOnUse">
      <feOffset dx="5" dy="-5" input="SourceAlpha"/>
      <feGaussianBlur stdDeviation="3" result="blur-33"/>
      <feFlood flood-opacity="0.161"/>
      <feComposite operator="in" in2="blur-33"/>
      <feComposite in="SourceGraphic"/>
    </filter>
    <filter id="Ellipse_5" x="371.17" y="501" width="44" height="44" filterUnits="userSpaceOnUse">
      <feOffset dx="5" dy="-5" input="SourceAlpha"/>
      <feGaussianBlur stdDeviation="3" result="blur-34"/>
      <feFlood flood-opacity="0.161"/>
      <feComposite operator="in" in2="blur-34"/>
      <feComposite in="SourceGraphic"/>
    </filter>
    <filter id="Ellipse_6" x="405.17" y="528" width="44" height="44" filterUnits="userSpaceOnUse">
      <feOffset dx="5" dy="-5" input="SourceAlpha"/>
      <feGaussianBlur stdDeviation="3" result="blur-35"/>
      <feFlood flood-opacity="0.161"/>
      <feComposite operator="in" in2="blur-35"/>
      <feComposite in="SourceGraphic"/>
    </filter>
    <filter id="Ellipse_7" x="361.17" y="570" width="44" height="44" filterUnits="userSpaceOnUse">
      <feOffset dx="5" dy="-5" input="SourceAlpha"/>
      <feGaussianBlur stdDeviation="3" result="blur-36"/>
      <feFlood flood-opacity="0.161"/>
      <feComposite operator="in" in2="blur-36"/>
      <feComposite in="SourceGraphic"/>
    </filter>
    <filter id="Path_30" x="388.09" y="650" width="46.08" height="74" filterUnits="userSpaceOnUse">
      <feOffset dx="5" dy="-5" input="SourceAlpha"/>
      <feGaussianBlur stdDeviation="3" result="blur-37"/>
      <feFlood flood-opacity="0.161"/>
      <feComposite operator="in" in2="blur-37"/>
      <feComposite in="SourceGraphic"/>
    </filter>
    <filter id="Path_31" x="322.474" y="671.679" width="69.708" height="51.74" filterUnits="userSpaceOnUse">
      <feOffset dx="5" dy="-5" input="SourceAlpha"/>
      <feGaussianBlur stdDeviation="3" result="blur-38"/>
      <feFlood flood-opacity="0.161"/>
      <feComposite operator="in" in2="blur-38"/>
      <feComposite in="SourceGraphic"/>
    </filter>
    <filter id="Ellipse_8" x="242.426" y="259" width="178" height="178" filterUnits="userSpaceOnUse">
      <feOffset dx="5" dy="-5" input="SourceAlpha"/>
      <feGaussianBlur stdDeviation="3" result="blur-39"/>
      <feFlood flood-opacity="0.161"/>
      <feComposite operator="in" in2="blur-39"/>
      <feComposite in="SourceGraphic"/>
    </filter>
    <filter id="Ellipse_9" x="266.088" y="282.662" width="130.676" height="130.676" filterUnits="userSpaceOnUse">
      <feOffset dx="5" dy="-5" input="SourceAlpha"/>
      <feGaussianBlur stdDeviation="3" result="blur-40"/>
      <feFlood flood-opacity="0.161"/>
      <feComposite operator="in" in2="blur-40"/>
      <feComposite in="SourceGraphic"/>
    </filter>
    <filter id="Ellipse_10" x="285.243" y="301.817" width="92.366" height="92.366" filterUnits="userSpaceOnUse">
      <feOffset dx="5" dy="-5" input="SourceAlpha"/>
      <feGaussianBlur stdDeviation="3" result="blur-41"/>
      <feFlood flood-opacity="0.161"/>
      <feComposite operator="in" in2="blur-41"/>
      <feComposite in="SourceGraphic"/>
    </filter>
    <filter id="Path_32" x="315.665" y="324.217" width="31.522" height="47.431" filterUnits="userSpaceOnUse">
      <feOffset dx="5" dy="-5" input="SourceAlpha"/>
      <feGaussianBlur stdDeviation="3" result="blur-42"/>
      <feFlood flood-opacity="0.161"/>
      <feComposite operator="in" in2="blur-42"/>
      <feComposite in="SourceGraphic"/>
    </filter>
    <filter id="Path_33" x="556.143" y="48" width="203.243" height="160.88" filterUnits="userSpaceOnUse">
      <feOffset dx="5" dy="-5" input="SourceAlpha"/>
      <feGaussianBlur stdDeviation="3" result="blur-43"/>
      <feFlood flood-opacity="0.161"/>
      <feComposite operator="in" in2="blur-43"/>
      <feComposite in="SourceGraphic"/>
    </filter>
    <filter id="Path_34" x="623.464" y="116.202" width="94.878" height="92.822" filterUnits="userSpaceOnUse">
      <feOffset dx="5" dy="-5" input="SourceAlpha"/>
      <feGaussianBlur stdDeviation="3" result="blur-44"/>
      <feFlood flood-opacity="0.161"/>
      <feComposite operator="in" in2="blur-44"/>
      <feComposite in="SourceGraphic"/>
    </filter>
    <filter id="Path_35" x="623.464" y="116.202" width="94.878" height="92.822" filterUnits="userSpaceOnUse">
      <feOffset dx="5" dy="-5" input="SourceAlpha"/>
      <feGaussianBlur stdDeviation="3" result="blur-45"/>
      <feFlood flood-opacity="0.161"/>
      <feComposite operator="in" in2="blur-45"/>
      <feComposite in="SourceGraphic"/>
    </filter>
    <filter id="Path_36" x="712.812" y="213.193" width="46.534" height="238.399" filterUnits="userSpaceOnUse">
      <feOffset dx="5" dy="-5" input="SourceAlpha"/>
      <feGaussianBlur stdDeviation="3" result="blur-46"/>
      <feFlood flood-opacity="0.161"/>
      <feComposite operator="in" in2="blur-46"/>
      <feComposite in="SourceGraphic"/>
    </filter>
    <filter id="Path_37" x="712.812" y="213.193" width="46.534" height="238.399" filterUnits="userSpaceOnUse">
      <feOffset dx="5" dy="-5" input="SourceAlpha"/>
      <feGaussianBlur stdDeviation="3" result="blur-47"/>
      <feFlood flood-opacity="0.161"/>
      <feComposite operator="in" in2="blur-47"/>
      <feComposite in="SourceGraphic"/>
    </filter>
    <filter id="Path_38" x="583.938" y="405.096" width="100.457" height="290.96" filterUnits="userSpaceOnUse">
      <feOffset dx="5" dy="-5" input="SourceAlpha"/>
      <feGaussianBlur stdDeviation="3" result="blur-48"/>
      <feFlood flood-opacity="0.161"/>
      <feComposite operator="in" in2="blur-48"/>
      <feComposite in="SourceGraphic"/>
    </filter>
    <filter id="Path_39" x="559.366" y="659.319" width="89.004" height="77.084" filterUnits="userSpaceOnUse">
      <feOffset dx="5" dy="-5" input="SourceAlpha"/>
      <feGaussianBlur stdDeviation="3" result="blur-49"/>
      <feFlood flood-opacity="0.161"/>
      <feComposite operator="in" in2="blur-49"/>
      <feComposite in="SourceGraphic"/>
    </filter>
    <filter id="Path_40" x="671.937" y="389.854" width="89.357" height="304.815" filterUnits="userSpaceOnUse">
      <feOffset dx="5" dy="-5" input="SourceAlpha"/>
      <feGaussianBlur stdDeviation="3" result="blur-50"/>
      <feFlood flood-opacity="0.161"/>
      <feComposite operator="in" in2="blur-50"/>
      <feComposite in="SourceGraphic"/>
    </filter>
    <filter id="Path_41" x="666.307" y="663.875" width="64.298" height="70.033" filterUnits="userSpaceOnUse">
      <feOffset dx="5" dy="-5" input="SourceAlpha"/>
      <feGaussianBlur stdDeviation="3" result="blur-51"/>
      <feFlood flood-opacity="0.161"/>
      <feComposite operator="in" in2="blur-51"/>
      <feComposite in="SourceGraphic"/>
    </filter>
    <filter id="Ellipse_11" x="650.846" y="78.484" width="79.58" height="79.58" filterUnits="userSpaceOnUse">
      <feOffset dx="5" dy="-5" input="SourceAlpha"/>
      <feGaussianBlur stdDeviation="3" result="blur-52"/>
      <feFlood flood-opacity="0.161"/>
      <feComposite operator="in" in2="blur-52"/>
      <feComposite in="SourceGraphic"/>
    </filter>
    <filter id="Path_42" x="623.442" y="160.117" width="107.37" height="103.637" filterUnits="userSpaceOnUse">
      <feOffset dx="5" dy="-5" input="SourceAlpha"/>
      <feGaussianBlur stdDeviation="3" result="blur-53"/>
      <feFlood flood-opacity="0.161"/>
      <feComposite operator="in" in2="blur-53"/>
      <feComposite in="SourceGraphic"/>
    </filter>
    <filter id="Path_43" x="588.802" y="162.697" width="169.028" height="150.245" filterUnits="userSpaceOnUse">
      <feOffset dx="5" dy="-5" input="SourceAlpha"/>
      <feGaussianBlur stdDeviation="3" result="blur-54"/>
      <feFlood flood-opacity="0.161"/>
      <feComposite operator="in" in2="blur-54"/>
      <feComposite in="SourceGraphic"/>
    </filter>
    <filter id="Path_44" x="716.95" y="179.246" width="44.595" height="68.25" filterUnits="userSpaceOnUse">
      <feOffset dx="5" dy="-5" input="SourceAlpha"/>
      <feGaussianBlur stdDeviation="3" result="blur-55"/>
      <feFlood flood-opacity="0.161"/>
      <feComposite operator="in" in2="blur-55"/>
      <feComposite in="SourceGraphic"/>
    </filter>
    <filter id="Path_45" x="601.265" y="157.077" width="174.584" height="282.92" filterUnits="userSpaceOnUse">
      <feOffset dx="5" dy="-5" input="SourceAlpha"/>
      <feGaussianBlur stdDeviation="3" result="blur-56"/>
      <feFlood flood-opacity="0.161"/>
      <feComposite operator="in" in2="blur-56"/>
      <feComposite in="SourceGraphic"/>
    </filter>
    <filter id="Path_46" x="653.31" y="73.321" width="86.156" height="55.382" filterUnits="userSpaceOnUse">
      <feOffset dx="5" dy="-5" input="SourceAlpha"/>
      <feGaussianBlur stdDeviation="3" result="blur-57"/>
      <feFlood flood-opacity="0.161"/>
      <feComposite operator="in" in2="blur-57"/>
      <feComposite in="SourceGraphic"/>
    </filter>
    <filter id="Path_47" x="453.362" y="414.333" width="181.46" height="153.682" filterUnits="userSpaceOnUse">
      <feOffset dx="5" dy="-5" input="SourceAlpha"/>
      <feGaussianBlur stdDeviation="3" result="blur-58"/>
      <feFlood flood-opacity="0.161"/>
      <feComposite operator="in" in2="blur-58"/>
      <feComposite in="SourceGraphic"/>
    </filter>
    <filter id="Path_48" x="583.823" y="221.506" width="46.534" height="238.399" filterUnits="userSpaceOnUse">
      <feOffset dx="5" dy="-5" input="SourceAlpha"/>
      <feGaussianBlur stdDeviation="3" result="blur-59"/>
      <feFlood flood-opacity="0.161"/>
      <feComposite operator="in" in2="blur-59"/>
      <feComposite in="SourceGraphic"/>
    </filter>
    <filter id="Path_49" x="580.712" y="181.324" width="54.495" height="66.778" filterUnits="userSpaceOnUse">
      <feOffset dx="5" dy="-5" input="SourceAlpha"/>
      <feGaussianBlur stdDeviation="3" result="blur-60"/>
      <feFlood flood-opacity="0.161"/>
      <feComposite operator="in" in2="blur-60"/>
      <feComposite in="SourceGraphic"/>
    </filter>
  </defs>
  <g id="undraw-unlock" transform="translate(4 14)">
    <g transform="matrix(1, 0, 0, 1, -4, -14)" filter="url(#Path_1)">
      <path id="Path_1-2" data-name="Path 1" d="M1105.45,813.642q-78.133-11.444-150.281-19.73l19.02-30.778c-6.412-1.894-34.585,15.651-34.585,15.651l24.967-89.48c-32.248,3.107-48.658,94.513-48.658,94.513l-36.029-31.1,17.438,34.854c-147.212-15.2-274.351-21.165-381.29-21.854l16.279-26.342c-6.412-1.894-34.585,15.651-34.585,15.651l24.967-89.48c-32.248,3.107-48.658,94.513-48.658,94.513l-36.025-31.1,18.469,36.916c-89.651,1.087-162.761,5.872-219.191,11.451,16.467-41.078,72.394-79.96,72.394-79.96-42.708,10.436-65.112,28.152-76.82,44.71-.895-50.818,5.126-145,49.855-249.1,0,0-88.3,160.409-77.048,268.408l1.344,19.174C132.179,789.2,94.554,798.357,94.554,798.357Z" transform="translate(-90.55 -72.36)" fill="#3f3d56"/>
    </g>
    <g transform="matrix(1, 0, 0, 1, -4, -14)" filter="url(#Path_2)">
      <path id="Path_2-2" data-name="Path 2" d="M632.081,115.488v648.2a29.139,29.139,0,0,1-29.13,29.11H339.8a29.079,29.079,0,0,1-29.13-29.11v-648.2A29.128,29.128,0,0,1,339.8,86.358h39.377v5.05a23.988,23.988,0,0,0,23.983,23.99H537a23.789,23.789,0,0,0,14.22-4.68,22.285,22.285,0,0,0,2.36-1.98,23.917,23.917,0,0,0,7.4-17.33v-5.05h41.97a29.121,29.121,0,0,1,29.13,29.13Z" transform="translate(-90.55 -72.36)" fill="#3f3d56"/>
    </g>
    <g transform="matrix(1, 0, 0, 1, -4, -14)" filter="url(#Ellipse_1)">
      <circle id="Ellipse_1-2" data-name="Ellipse 1" cx="7" cy="7" r="7" transform="translate(286.43 115)" fill="#f2f2f2"/>
    </g>
    <g transform="matrix(1, 0, 0, 1, -4, -14)" filter="url(#Path_3)">
      <path id="Path_3-2" data-name="Path 3" d="M553.581,108.738a22.288,22.288,0,0,1-2.36,1.98,125.247,125.247,0,0,0,80.86,60.19v-3.12A122.3,122.3,0,0,1,553.581,108.738Z" transform="translate(-90.55 -72.36)" fill="#536dfe"/>
    </g>
    <g transform="matrix(1, 0, 0, 1, -4, -14)" filter="url(#Path_4)">
      <path id="Path_4-2" data-name="Path 4" d="M493.771,115.4h-3.28a181.668,181.668,0,0,0,141.59,113.05v-3.1A178.55,178.55,0,0,1,493.771,115.4Z" transform="translate(-90.55 -72.36)" fill="#536dfe"/>
    </g>
    <g transform="matrix(1, 0, 0, 1, -4, -14)" filter="url(#Path_5)">
      <path id="Path_5-2" data-name="Path 5" d="M433.351,115.4h-3.16c26.43,91.74,106.18,160.03,201.89,171.12v-3.05C538.031,272.428,459.651,205.438,433.351,115.4Z" transform="translate(-90.55 -72.36)" fill="#536dfe"/>
    </g>
    <g transform="matrix(1, 0, 0, 1, -4, -14)" filter="url(#Path_6)">
      <path id="Path_6-2" data-name="Path 6" d="M266.426,159.822H264.6V158h-.355v1.822h-1.823v.356h1.823V162h.355v-1.822h1.822Z" transform="translate(4 14)" fill="#f2f2f2"/>
    </g>
    <g transform="matrix(1, 0, 0, 1, -4, -14)" filter="url(#Path_7)">
      <path id="Path_7-2" data-name="Path 7" d="M389.426,68.822H387.6V67h-.355v1.822h-1.823v.356h1.823V71h.355V69.178h1.822Z" transform="translate(4 14)" fill="#f2f2f2"/>
    </g>
    <g transform="matrix(1, 0, 0, 1, -4, -14)" filter="url(#Path_8)">
      <path id="Path_8-2" data-name="Path 8" d="M284.426,231.822H282.6V230h-.355v1.822h-1.823v.356h1.823V234h.355v-1.822h1.822Z" transform="translate(4 14)" fill="#f2f2f2"/>
    </g>
    <g transform="matrix(1, 0, 0, 1, -4, -14)" filter="url(#Path_9)">
      <path id="Path_9-2" data-name="Path 9" d="M368.426,178.822H366.6V177h-.355v1.822h-1.823v.356h1.823V181h.355v-1.822h1.822Z" transform="translate(4 14)" fill="#f2f2f2"/>
    </g>
    <g transform="matrix(1, 0, 0, 1, -4, -14)" filter="url(#Path_10)">
      <path id="Path_10-2" data-name="Path 10" d="M488.426,211.822H486.6V210h-.355v1.822h-1.823v.356h1.823V214h.355v-1.822h1.822Z" transform="translate(4 14)" fill="#f2f2f2"/>
    </g>
    <g transform="matrix(1, 0, 0, 1, -4, -14)" filter="url(#Ellipse_2)">
      <circle id="Ellipse_2-2" data-name="Ellipse 2" cx="4" cy="4" r="4" transform="translate(467.43 135)" fill="#ff6584"/>
    </g>
    <g transform="matrix(1, 0, 0, 1, -4, -14)" filter="url(#Path_11)">
      <path id="Path_11-2" data-name="Path 11" d="M418.681,305.158l-2.27.35c.71,4.54,1.27,9.18,1.68,13.77l2.29-.2C419.971,314.428,419.4,309.748,418.681,305.158Z" transform="translate(-90.55 -72.36)" fill="#e6e6e6"/>
    </g>
    <g transform="matrix(1, 0, 0, 1, -4, -14)" filter="url(#Path_12)">
      <path id="Path_12-2" data-name="Path 12" d="M412.471,277.818l-2.2.67c1.33,4.4,2.52,8.91,3.53,13.4l2.25-.51C415.021,286.838,413.811,282.278,412.471,277.818Z" transform="translate(-90.55 -72.36)" fill="#e6e6e6"/>
    </g>
    <g transform="matrix(1, 0, 0, 1, -4, -14)" filter="url(#Path_13)">
      <path id="Path_13-2" data-name="Path 13" d="M402.561,251.6l-2.09.96c1.92,4.19,3.72,8.49,5.35,12.79l2.15-.81C406.321,260.188,404.511,255.828,402.561,251.6Z" transform="translate(-90.55 -72.36)" fill="#e6e6e6"/>
    </g>
    <g transform="matrix(1, 0, 0, 1, -4, -14)" filter="url(#Path_14)">
      <path id="Path_14-2" data-name="Path 14" d="M389.161,227.018l-1.94,1.23c2.47,3.88,4.84,7.9,7.04,11.93l2.02-1.1C394.061,235,391.661,230.938,389.161,227.018Z" transform="translate(-90.55 -72.36)" fill="#e6e6e6"/>
    </g>
    <g transform="matrix(1, 0, 0, 1, -4, -14)" filter="url(#Path_15)">
      <path id="Path_15-2" data-name="Path 15" d="M372.5,204.488l-1.75,1.49c2.98,3.5,5.88,7.16,8.62,10.86l1.84-1.37C378.451,211.728,375.521,208.028,372.5,204.488Z" transform="translate(-90.55 -72.36)" fill="#e6e6e6"/>
    </g>
    <g transform="matrix(1, 0, 0, 1, -4, -14)" filter="url(#Path_16)">
      <path id="Path_16-2" data-name="Path 16" d="M352.921,184.428l-1.53,1.71c3.44,3.07,6.81,6.3,10.02,9.59l1.65-1.61C359.811,190.788,356.4,187.528,352.921,184.428Z" transform="translate(-90.55 -72.36)" fill="#e6e6e6"/>
    </g>
    <g transform="matrix(1, 0, 0, 1, -4, -14)" filter="url(#Path_17)">
      <path id="Path_17-2" data-name="Path 17" d="M330.8,167.208l-1.29,1.9c3.82,2.57,7.6,5.31,11.23,8.14l1.42-1.81C338.481,172.578,334.661,169.808,330.8,167.208Z" transform="translate(-90.55 -72.36)" fill="#e6e6e6"/>
    </g>
    <g transform="matrix(1, 0, 0, 1, -4, -14)" filter="url(#Path_18)">
      <path id="Path_18-2" data-name="Path 18" d="M310.671,155.248v2.6c2.39,1.25,4.76,2.56,7.08,3.9l1.15-1.99Q314.851,157.418,310.671,155.248Z" transform="translate(-90.55 -72.36)" fill="#e6e6e6"/>
    </g>
    <g transform="matrix(1, 0, 0, 1, -4, -14)" filter="url(#Path_19)">
      <path id="Path_19-2" data-name="Path 19" d="M418.161,521.161c.373-2.236.714-4.519,1.015-6.785l2.279.3c-.3,2.292-.649,4.6-1.026,6.861Z" transform="translate(-90.55 -72.36)" fill="#e6e6e6"/>
    </g>
    <g transform="matrix(1, 0, 0, 1, -4, -14)" filter="url(#Path_20)">
      <path id="Path_20-2" data-name="Path 20" d="M411.752,548.14l2.2.684c1.379-4.444,2.626-9,3.707-13.531l-2.239-.53C414.346,539.25,413.121,543.745,411.752,548.14Z" transform="translate(-90.55 -72.36)" fill="#e6e6e6"/>
    </g>
    <g transform="matrix(1, 0, 0, 1, -4, -14)" filter="url(#Path_21)">
      <path id="Path_21-2" data-name="Path 21" d="M401.71,573.972l2.086.978c1.984-4.208,3.84-8.544,5.525-12.884l-2.146-.837C405.511,565.522,403.674,569.811,401.71,573.972Z" transform="translate(-90.55 -72.36)" fill="#e6e6e6"/>
    </g>
    <g transform="matrix(1, 0, 0, 1, -4, -14)" filter="url(#Path_22)">
      <path id="Path_22-2" data-name="Path 22" d="M388.2,598.205l1.928,1.252c2.543-3.9,4.983-7.942,7.254-12.01l-2.005-1.125C393.135,590.345,390.715,594.341,388.2,598.205Z" transform="translate(-90.55 -72.36)" fill="#e6e6e6"/>
    </g>
    <g transform="matrix(1, 0, 0, 1, -4, -14)" filter="url(#Path_23)">
      <path id="Path_23-2" data-name="Path 23" d="M371.482,620.344l1.743,1.51c3.059-3.528,6.025-7.2,8.836-10.91l-1.841-1.377C377.448,613.236,374.512,616.861,371.482,620.344Z" transform="translate(-90.55 -72.36)" fill="#e6e6e6"/>
    </g>
    <g transform="matrix(1, 0, 0, 1, -4, -14)" filter="url(#Path_24)">
      <path id="Path_24-2" data-name="Path 24" d="M351.907,639.989l1.514,1.729c3.516-3.068,6.955-6.3,10.24-9.592l-1.626-1.629C358.787,633.751,355.378,636.943,351.907,639.989Z" transform="translate(-90.55 -72.36)" fill="#e6e6e6"/>
    </g>
    <g transform="matrix(1, 0, 0, 1, -4, -14)" filter="url(#Path_25)">
      <path id="Path_25-2" data-name="Path 25" d="M329.855,656.78l1.27,1.924c3.883-2.564,7.739-5.3,11.438-8.112l-1.39-1.836C337.509,651.548,333.7,654.249,329.855,656.78Z" transform="translate(-90.55 -72.36)" fill="#e6e6e6"/>
    </g>
    <g transform="matrix(1, 0, 0, 1, -4, -14)" filter="url(#Path_26)">
      <path id="Path_26-2" data-name="Path 26" d="M319.161,666.008c-2.78,1.57-5.62,3.09-8.49,4.53v-2.58c2.48-1.26,4.94-2.59,7.35-3.94Z" transform="translate(-90.55 -72.36)" fill="#e6e6e6"/>
    </g>
    <g transform="matrix(1, 0, 0, 1, -4, -14)" filter="url(#Path_27)">
      <path id="Path_27-2" data-name="Path 27" d="M418.836,333.464l2.3-.042c.042,2.321.045,4.655.009,6.936l-2.3-.036C418.88,338.066,418.877,335.759,418.836,333.464Z" transform="translate(-90.55 -72.36)" fill="#e6e6e6"/>
    </g>
    <g transform="matrix(1, 0, 0, 1, -4, -14)" filter="url(#Path_28)">
      <path id="Path_28-2" data-name="Path 28" d="M226.216,301.632H461.427a66,66,0,0,1,66,66v8.736H292.216a66,66,0,0,1-66-66v-8.736Z" transform="translate(4 14)" fill="#fff"/>
    </g>
    <g transform="matrix(1, 0, 0, 1, -4, -14)" filter="url(#Path_29)">
      <path id="Path_29-2" data-name="Path 29" d="M476.87,791.879c-.229-.375-5.641-9.41-7.517-28.172-1.721-17.213-.614-46.227,14.433-86.7,28.506-76.671-6.569-138.533-6.928-139.149l1.73-1c.091.156,9.142,15.929,14.488,41.044a179.061,179.061,0,0,1-7.416,99.807c-28.457,76.54-7.3,112.773-7.084,113.131Z" transform="translate(-90.55 -72.36)" fill="#f2f2f2"/>
    </g>
    <g transform="matrix(1, 0, 0, 1, -4, -14)" filter="url(#Ellipse_3)">
      <circle id="Ellipse_3-2" data-name="Ellipse 3" cx="13" cy="13" r="13" transform="translate(362.17 435)" fill="#536dfe"/>
    </g>
    <g transform="matrix(1, 0, 0, 1, -4, -14)" filter="url(#Ellipse_4)">
      <circle id="Ellipse_4-2" data-name="Ellipse 4" cx="13" cy="13" r="13" transform="translate(403.17 483)" fill="#f2f2f2"/>
    </g>
    <g transform="matrix(1, 0, 0, 1, -4, -14)" filter="url(#Ellipse_5)">
      <circle id="Ellipse_5-2" data-name="Ellipse 5" cx="13" cy="13" r="13" transform="translate(375.17 515)" fill="#536dfe"/>
    </g>
    <g transform="matrix(1, 0, 0, 1, -4, -14)" filter="url(#Ellipse_6)">
      <circle id="Ellipse_6-2" data-name="Ellipse 6" cx="13" cy="13" r="13" transform="translate(409.17 542)" fill="#536dfe"/>
    </g>
    <g transform="matrix(1, 0, 0, 1, -4, -14)" filter="url(#Ellipse_7)">
      <circle id="Ellipse_7-2" data-name="Ellipse 7" cx="13" cy="13" r="13" transform="translate(365.17 584)" fill="#f2f2f2"/>
    </g>
    <g transform="matrix(1, 0, 0, 1, -4, -14)" filter="url(#Path_30)">
      <path id="Path_30-2" data-name="Path 30" d="M484.724,792.358s-13-32,26-56Z" transform="translate(-90.55 -72.36)" fill="#f2f2f2"/>
    </g>
    <g transform="matrix(1, 0, 0, 1, -4, -14)" filter="url(#Path_31)">
      <path id="Path_31-2" data-name="Path 31" d="M468.736,791.777s-5.916-34.029-51.708-33.738Z" transform="translate(-90.55 -72.36)" fill="#f2f2f2"/>
    </g>
    <g transform="matrix(1, 0, 0, 1, -4, -14)" filter="url(#Ellipse_8)">
      <circle id="Ellipse_8-2" data-name="Ellipse 8" cx="80" cy="80" r="80" transform="translate(246.43 273)" fill="#536dfe" opacity="0.2"/>
    </g>
    <g transform="matrix(1, 0, 0, 1, -4, -14)" filter="url(#Ellipse_9)">
      <circle id="Ellipse_9-2" data-name="Ellipse 9" cx="56.338" cy="56.338" r="56.338" transform="translate(270.09 296.66)" fill="#536dfe" opacity="0.2"/>
    </g>
    <g transform="matrix(1, 0, 0, 1, -4, -14)" filter="url(#Ellipse_10)">
      <circle id="Ellipse_10-2" data-name="Ellipse 10" cx="37.183" cy="37.183" r="37.183" transform="translate(289.24 315.82)" fill="#536dfe"/>
    </g>
    <g transform="matrix(1, 0, 0, 1, -4, -14)" filter="url(#Path_32)">
      <path id="Path_32-2" data-name="Path 32" d="M423.741,417.338a6.761,6.761,0,1,0-11.031,5.239l-2.49,17.429h13.521l-2.49-17.429a6.745,6.745,0,0,0,2.49-5.239Z" transform="translate(-90.55 -72.36)" fill="#fff"/>
    </g>
    <g transform="matrix(1, 0, 0, 1, -4, -14)" filter="url(#Path_33)">
      <path id="Path_33-2" data-name="Path 33" d="M790.661,139.658s-22.3-19.995-52.294,17.688-76.9,56.139-87.67,70.751c0,0,44.6-18.457,59.985-26.147s14.612-6.152,14.612-6.152-20.764,14.612-24.609,29.223-.769,26.916-7.69,41.528,132.274,10,132.274,10,13.843-23.84,10-48.449S833.727,142.734,790.661,139.658Z" transform="translate(-90.55 -72.36)" fill="#2f2e41"/>
    </g>
    <g transform="matrix(1, 0, 0, 1, -4, -14)" filter="url(#Path_34)">
      <path id="Path_34-2" data-name="Path 34" d="M748.479,202.56s4.85,33.947-15.934,41.568-13.163,18.013-13.163,18.013l31.176,15.241,33.254-10.392L794.9,250.363s-18.013-4.157-13.163-16.627,6.235-16.627,6.235-16.627Z" transform="translate(-90.55 -72.36)" fill="#ffb9b9"/>
    </g>
    <g transform="matrix(1, 0, 0, 1, -4, -14)" filter="url(#Path_35)">
      <path id="Path_35-2" data-name="Path 35" d="M748.479,202.56s4.85,33.947-15.934,41.568-13.163,18.013-13.163,18.013l31.176,15.241,33.254-10.392L794.9,250.363s-18.013-4.157-13.163-16.627,6.235-16.627,6.235-16.627Z" transform="translate(-90.55 -72.36)" opacity="0.1"/>
    </g>
    <g transform="matrix(1, 0, 0, 1, -4, -14)" filter="url(#Path_36)">
      <path id="Path_36-2" data-name="Path 36" d="M835.77,299.551s-4.85,63.737-3.464,66.508,0,99.069,0,99.069,9.7,51.959-2.771,54.731-9.7-58.194-9.7-58.194L807.366,381.3l1.386-79.671Z" transform="translate(-90.55 -72.36)" fill="#ffb9b9"/>
    </g>
    <g transform="matrix(1, 0, 0, 1, -4, -14)" filter="url(#Path_37)">
      <path id="Path_37-2" data-name="Path 37" d="M835.77,299.551s-4.85,63.737-3.464,66.508,0,99.069,0,99.069,9.7,51.959-2.771,54.731-9.7-58.194-9.7-58.194L807.366,381.3l1.386-79.671Z" transform="translate(-90.55 -72.36)" opacity="0.1"/>
    </g>
    <g transform="matrix(1, 0, 0, 1, -4, -14)" filter="url(#Path_38)">
      <path id="Path_38-2" data-name="Path 38" d="M700.676,491.454s-22.862,86.6-22.169,128.859,9.7,101.148,9.7,101.148,1.386,25.633-.693,28.4,10.392,14.549,10.392,14.549l13.163-7.621,4.85-5.542V746.4s-7.621-23.555-1.386-42.26,9.7-65.815,3.464-80.364L760.949,496.3Z" transform="translate(-90.55 -72.36)" fill="#ffb9b9"/>
    </g>
    <g transform="matrix(1, 0, 0, 1, -4, -14)" filter="url(#Path_39)">
      <path id="Path_39-2" data-name="Path 39" d="M699.291,753.329s-8.314-10.392-13.856-6.928-14.549,27.019-14.549,27.019-31.176,29.79-9.006,31.176,31.868-6.235,34.64-11.777,28.4-20.091,28.4-20.091S722.153,746.4,718,745.708,707.6,756.1,707.6,756.1Z" transform="translate(-90.55 -72.36)" fill="#2f2e41"/>
    </g>
    <g transform="matrix(1, 0, 0, 1, -4, -14)" filter="url(#Path_40)">
      <path id="Path_40-2" data-name="Path 40" d="M776.19,497V582.9a265.62,265.62,0,0,0,2.078,31.176c2.078,15.241-11.777,128.859-11.777,128.859l1.386,20.091,17.32-1.386,2.078-17.32,24.94-76.207s8.313-46.417,4.157-63.737,21.477-128.166,21.477-128.166Z" transform="translate(-90.55 -72.36)" fill="#ffb9b9"/>
    </g>
    <g transform="matrix(1, 0, 0, 1, -4, -14)" filter="url(#Path_41)">
      <path id="Path_41-2" data-name="Path 41" d="M762.335,758.178l5.131-1.115s3.875-8.584,8.725-6.505a52.3,52.3,0,0,1,9.643,5.778l2.134,3.921s4.85,10.392,11.085,17.32,13.163,22.169,2.771,23.555-24.248,2.078-28.4-1.386-1.386-9.006-5.542-10.392-7.621-5.542-6.928-6.928S762.335,758.178,762.335,758.178Z" transform="translate(-90.55 -72.36)" fill="#2f2e41"/>
    </g>
    <g transform="matrix(1, 0, 0, 1, -4, -14)" filter="url(#Ellipse_11)">
      <circle id="Ellipse_11-2" data-name="Ellipse 11" cx="30.79" cy="30.79" r="30.79" transform="translate(654.85 92.48)" fill="#ffb9b9"/>
    </g>
    <g transform="matrix(1, 0, 0, 1, -4, -14)" filter="url(#Path_42)">
      <path id="Path_42-2" data-name="Path 42" d="M718,249.67l9.151-3.195s-3.609,5.966,15.789,9.43,39.487,4.69,48.494-6.661c0,0,3.465-1.652,8.314,3.2s7.621,3.464,7.621,3.464L803.9,273.918l-6.928,33.254-9.006,24.94-25.633-5.542-27.712-20.091L724.231,279.46V254.519Z" transform="translate(-90.55 -72.36)" fill="#536dfe"/>
    </g>
    <g transform="matrix(1, 0, 0, 1, -4, -14)" filter="url(#Path_43)">
      <path id="Path_43-2" data-name="Path 43" d="M802.516,259.369l6.928-4.85s23.555,4.157,24.94,15.241L816.372,304.4a39.436,39.436,0,0,1-.693,29.79c-6.928,15.934-6.235,19.4-6.235,19.4l-4.85,20.784L716.61,381.3s-3.464-8.313-4.85-9.7-1.386-6.235,0-6.235,0-2.078-1.386-4.157-2.078-2.771,0-5.542-3.464-27.712-3.464-27.712V300.936L683.356,269.76s8.313-12.47,12.47-13.856,23.93-6.85,23.93-6.85l4.474,6.588,6.235,50.143,9.006,30.483,37.921-6.443,14.731-24.733,9.7-29.1Z" transform="translate(-90.55 -72.36)" fill="#536dfe"/>
    </g>
    <g transform="matrix(1, 0, 0, 1, -4, -14)" filter="url(#Path_44)">
      <path id="Path_44-2" data-name="Path 44" d="M828.843,265.6l5.542,4.157s4.85,38.8,3.464,41.568-25.633,5.542-26.326,4.157S828.843,265.6,828.843,265.6Z" transform="translate(-90.55 -72.36)" fill="#536dfe"/>
    </g>
    <g transform="matrix(1, 0, 0, 1, -4, -14)" filter="url(#Path_45)">
      <path id="Path_45-2" data-name="Path 45" d="M714.532,246.206l6.928,45.724s-6.235,67.893-4.85,81.749L718,377.836s-2.771-1.386-3.464,1.386,0,11.777,0,11.777-4.157,4.157-5.542,27.019-18.013,77.593-11.777,79.671,43.646,12.47,63.737,10.392S853.09,481.755,852.4,475.52s-35.332-94.22-35.332-94.22-6.235-10.392-6.235-11.777,8.313-6.928,6.235-12.47S803.9,293.316,803.9,293.316l7.621-41.568-10.392-2.771-7.621,40.182s-29.79,14.549-60.966,1.386l-6.928-47.11Z" transform="translate(-90.55 -72.36)" fill="#2f2e41"/>
    </g>
    <g transform="matrix(1, 0, 0, 1, -4, -14)" filter="url(#Path_46)">
      <path id="Path_46-2" data-name="Path 46" d="M747.864,173.535s51.266,35.332,65.122,19.4-24.248-29.79-24.248-29.79l-31.868-3.464Z" transform="translate(-90.55 -72.36)" fill="#2f2e41"/>
    </g>
    <g transform="matrix(1, 0, 0, 1, -4, -14)" filter="url(#Path_47)">
      <path id="Path_47-2" data-name="Path 47" d="M668.209,549.4a27.027,27.027,0,1,0-8.479-10.524l-70.706,58.872-9.414-11.174-4.23,2.829-4.707-5.587,3.868-3.259-4.707-5.587-6.017,5.069,2.9,3.438-6.446,5.432-2.9-3.438-9.455,7.966,4.345,5.157,3.438-2.9,4.707,5.587-4.3,3.621,8.69,10.314-10.314,8.69,10.5,12.463Zm17.654-39.492A17.882,17.882,0,1,1,666.524,526.2a17.882,17.882,0,0,1,19.339-16.294Z" transform="translate(-90.55 -72.36)" fill="#536dfe"/>
    </g>
    <g transform="matrix(1, 0, 0, 1, -4, -14)" filter="url(#Path_48)">
      <path id="Path_48-2" data-name="Path 48" d="M678.507,307.864s4.85,63.737,3.464,66.508,0,99.069,0,99.069-9.7,51.959,2.771,54.73,9.7-58.194,9.7-58.194l12.47-80.364-1.386-79.671Z" transform="translate(-90.55 -72.36)" fill="#ffb9b9"/>
    </g>
    <g transform="matrix(1, 0, 0, 1, -4, -14)" filter="url(#Path_49)">
      <path id="Path_49-2" data-name="Path 49" d="M688.9,267.682l-5.542,2.078s-10.392,43.646-7.621,43.646,36.025,4.157,36.025,2.771-6.235-35.332-6.235-35.332Z" transform="translate(-90.55 -72.36)" fill="#536dfe"/>
    </g>
  </g>
</svg>
